<svg xmlns="http://www.w3.org/2000/svg" xmlns:xlink="http://www.w3.org/1999/xlink" width="500" zoomAndPan="magnify" viewBox="0 0 375 374.999991" height="500" preserveAspectRatio="xMidYMid meet" version="1.0"><defs><g/></defs><g fill="#000000" fill-opacity="1"><g transform="translate(76.518321, 207.575098)"><g><path d="M 7.4375 0 L 9.632812 0 C 10.054688 0 10.308594 -0.167969 10.308594 -0.589844 L 10.308594 -39.125 L 28.898438 -15.632812 C 29.152344 -15.546875 29.324219 -15.464844 29.492188 -15.464844 C 29.660156 -15.464844 29.828125 -15.546875 30.082031 -15.632812 L 48.671875 -39.125 L 48.671875 -0.589844 C 48.671875 -0.167969 48.925781 0 49.347656 0 L 51.546875 0 C 51.96875 0 52.222656 -0.167969 52.222656 -0.589844 L 52.222656 -47.914062 C 52.054688 -48.167969 51.882812 -48.25 51.714844 -48.25 C 51.378906 -48.25 51.378906 -48.167969 51.125 -47.914062 L 30.84375 -22.308594 C 30.25 -21.71875 30.082031 -21.378906 29.492188 -21.378906 C 28.898438 -21.378906 28.730469 -21.71875 28.140625 -22.308594 L 7.859375 -47.914062 C 7.605469 -48.167969 7.605469 -48.25 7.265625 -48.25 C 7.097656 -48.25 6.929688 -48.167969 6.761719 -47.914062 L 6.761719 -0.589844 C 6.761719 -0.167969 7.015625 0 7.4375 0 Z M 7.4375 0 "/></g></g></g><g fill="#000000" fill-opacity="1"><g transform="translate(131.944629, 207.575098)"><g><path d="M 7.4375 0 L 9.632812 0 C 10.054688 0 10.308594 -0.167969 10.308594 -0.589844 L 10.308594 -47.40625 C 10.308594 -47.828125 10.054688 -47.996094 9.632812 -47.996094 L 7.4375 -47.996094 C 7.015625 -47.996094 6.761719 -47.828125 6.761719 -47.40625 L 6.761719 -0.589844 C 6.761719 -0.167969 7.015625 0 7.4375 0 Z M 7.4375 0 "/></g></g></g><g fill="#000000" fill-opacity="1"><g transform="translate(145.462767, 207.575098)"><g><path d="M 21.125 0.421875 C 30.675781 0.421875 38.449219 -7.351562 38.449219 -16.902344 C 38.449219 -26.363281 30.675781 -34.222656 21.125 -34.222656 C 11.660156 -34.222656 3.800781 -26.363281 3.800781 -16.902344 C 3.800781 -7.351562 11.660156 0.421875 21.125 0.421875 Z M 21.125 -3.125 C 13.605469 -3.125 7.605469 -9.210938 7.605469 -16.730469 C 7.605469 -24.167969 13.605469 -30.421875 21.125 -30.421875 C 28.730469 -30.421875 34.644531 -24.167969 34.644531 -16.730469 C 34.644531 -9.210938 28.730469 -3.125 21.125 -3.125 Z M 21.125 -3.125 "/></g></g></g><g fill="#000000" fill-opacity="1"><g transform="translate(184.159599, 207.575098)"><g><path d="M 21.125 0.421875 C 30.675781 0.421875 38.449219 -7.351562 38.449219 -16.902344 C 38.449219 -26.363281 30.675781 -34.222656 21.125 -34.222656 C 11.660156 -34.222656 3.800781 -26.363281 3.800781 -16.902344 C 3.800781 -7.351562 11.660156 0.421875 21.125 0.421875 Z M 21.125 -3.125 C 13.605469 -3.125 7.605469 -9.210938 7.605469 -16.730469 C 7.605469 -24.167969 13.605469 -30.421875 21.125 -30.421875 C 28.730469 -30.421875 34.644531 -24.167969 34.644531 -16.730469 C 34.644531 -9.210938 28.730469 -3.125 21.125 -3.125 Z M 21.125 -3.125 "/></g></g></g><g fill="#000000" fill-opacity="1"><g transform="translate(222.856431, 207.575098)"><g><path d="M 7.4375 14.449219 L 9.632812 14.449219 C 10.054688 14.449219 10.308594 14.28125 10.308594 13.859375 L 10.308594 -6.167969 C 15.972656 -0.339844 21.210938 0.421875 24.929688 0.421875 C 35.574219 0.421875 41.066406 -7.4375 41.066406 -17.070312 C 41.066406 -27.125 34.476562 -34.222656 23.914062 -34.222656 C 22.476562 -34.222656 15.464844 -34.140625 10.5625 -27.886719 L 9.972656 -33.039062 C 9.800781 -33.546875 9.464844 -33.800781 8.957031 -33.800781 L 7.4375 -33.800781 C 7.015625 -33.800781 6.761719 -33.632812 6.761719 -33.210938 L 6.761719 13.859375 C 6.761719 14.28125 7.015625 14.449219 7.4375 14.449219 Z M 24.082031 -3.125 C 16.902344 -3.125 10.5625 -8.195312 10.5625 -16.984375 C 10.5625 -25.519531 17.070312 -30.421875 24.082031 -30.421875 C 31.519531 -30.421875 37.265625 -25.433594 37.265625 -16.984375 C 37.265625 -6.929688 31.519531 -3.125 24.082031 -3.125 Z M 24.082031 -3.125 "/></g></g></g><g fill="#000000" fill-opacity="1"><g transform="translate(264.172529, 207.575098)"><g><path d="M 16.984375 0.421875 C 23.070312 0.421875 30 -1.265625 30 -8.789062 C 30 -18.167969 8.195312 -19.183594 8.195312 -25.351562 C 8.195312 -28.308594 9.632812 -30.421875 17.578125 -30.421875 C 19.941406 -30.421875 22.898438 -30.421875 25.265625 -29.828125 C 25.605469 -29.828125 25.941406 -30.167969 26.027344 -30.25 L 26.617188 -32.363281 C 26.617188 -32.703125 26.449219 -32.957031 26.195312 -33.210938 C 23.40625 -33.800781 19.097656 -34.222656 16.648438 -34.222656 C 8.957031 -34.222656 4.648438 -31.433594 4.648438 -25.773438 C 4.648438 -14.535156 26.449219 -16.054688 26.449219 -7.859375 C 26.449219 -3.042969 18.84375 -3.042969 16.140625 -3.042969 C 12.507812 -3.042969 8.957031 -4.226562 5.914062 -5.238281 C 5.578125 -5.238281 5.40625 -5.070312 5.324219 -4.816406 L 4.902344 -2.875 C 4.902344 -2.449219 5.070312 -2.113281 5.324219 -1.945312 C 8.703125 -0.339844 13.011719 0.421875 16.984375 0.421875 Z M 16.984375 0.421875 "/></g></g></g></svg>